<svg width="40" height="40" viewBox="0 0 40 40" fill="none" xmlns="http://www.w3.org/2000/svg">
<path d="M31.75 15.95C32.575 13.875 33.875 11.825 35.6125 9.84994C36.1625 9.22494 36.2375 8.32497 35.7875 7.62497C35.4375 7.07497 34.8625 6.77499 34.2375 6.77499C34.0625 6.77499 33.8875 6.78742 33.7125 6.84998C30.0375 7.92497 21.45 11.7375 21.2125 23.9625C21.125 28.6749 24.575 32.7249 29.0625 33.1874C31.55 33.4374 34.025 32.625 35.8625 30.975C37.7 29.3125 38.75 26.9374 38.75 24.4625C38.75 20.3375 35.825 16.7249 31.75 15.95Z" fill="#FF6B31"/>
<path d="M9.11205 33.1874C11.5871 33.4374 14.0621 32.625 15.8995 30.975C17.7371 29.3125 18.7871 26.9374 18.7871 24.4625C18.7871 20.3375 15.8621 16.725 11.7871 15.95C12.6121 13.875 13.9121 11.825 15.6496 9.84998C16.1996 9.22498 16.2746 8.32502 15.8245 7.62502C15.4746 7.07502 14.8995 6.77503 14.2745 6.77503C14.0996 6.77503 13.9246 6.78747 13.7496 6.85003C10.0746 7.92502 1.48707 11.7375 1.24957 23.9625L1.24957 24.1375C1.24957 28.775 4.66205 32.7249 9.11205 33.1874Z" fill="#FF6B31"/>
</svg>
