<svg width="40" height="40" viewBox="0 0 40 40" fill="none" xmlns="http://www.w3.org/2000/svg">
<path d="M8.24998 24.05C7.425 26.125 6.12503 28.175 4.38751 30.1501C3.83751 30.7751 3.76251 31.675 4.2125 32.375C4.56254 32.925 5.13749 33.225 5.76249 33.225C5.9375 33.225 6.11252 33.2126 6.28754 33.15C9.96246 32.075 18.55 28.2625 18.7875 16.0375C18.875 11.3251 15.425 7.27506 10.9375 6.81256C8.45001 6.56255 5.97504 7.375 4.1375 9.02501C2.30004 10.6875 1.25 13.0626 1.25 15.5375C1.25 19.6625 4.17504 23.2751 8.24998 24.05Z" fill="#FF6B31"/>
<path d="M30.888 6.81256C28.4129 6.56255 25.9379 7.375 24.1005 9.02501C22.2629 10.6875 21.2129 13.0626 21.2129 15.5375C21.2129 19.6625 24.1379 23.275 28.2129 24.05C27.3879 26.125 26.0879 28.175 24.3504 30.15C23.8004 30.775 23.7254 31.675 24.1755 32.375C24.5254 32.925 25.1005 33.225 25.7255 33.225C25.9004 33.225 26.0754 33.2125 26.2504 33.15C29.9254 32.075 38.5129 28.2625 38.7504 16.0375V15.8625C38.7504 11.225 35.338 7.27506 30.888 6.81256Z" fill="#FF6B31"/>
</svg>
